<svg width="34" height="34" viewBox="0 0 34 34" fill="none" xmlns="http://www.w3.org/2000/svg"><rect width="34" height="34" rx="5" fill="#181A36"/><path fill-rule="evenodd" clip-rule="evenodd" d="M12.7974 9.04543C11.0155 9.29561 9.58131 10.5776 9.1433 12.3117C9.10206 12.475 9.05322 12.7352 9.03475 12.8899C8.98842 13.2781 8.98842 20.7202 9.03475 21.1084C9.25207 22.9295 10.5476 24.4107 12.3131 24.8567C12.4764 24.8979 12.7365 24.9468 12.8911 24.9652C13.2793 25.0116 20.7207 25.0116 21.1089 24.9652C22.7501 24.7693 24.1223 23.6983 24.7185 22.1478C24.815 21.8968 24.9279 21.4213 24.9652 21.1084C25.0116 20.7202 25.0116 13.2781 24.9652 12.8899C24.7694 11.2485 23.6984 9.87613 22.1481 9.2798C21.8971 9.18327 21.4217 9.0704 21.1089 9.03305C20.6812 8.98199 13.1695 8.99318 12.7974 9.04543ZM22.0485 11.0823C22.4539 11.2186 22.7787 11.5436 22.916 11.9501C22.981 12.1426 22.9833 12.5247 22.9207 12.731C22.6644 13.5759 21.656 13.9386 20.9205 13.4504C20.4893 13.1641 20.2606 12.6544 20.3405 12.1578C20.4207 11.6598 20.7618 11.249 21.2268 11.0906C21.4415 11.0174 21.8434 11.0133 22.0485 11.0823ZM21.4648 12.0148C21.2849 12.1126 21.2143 12.3776 21.3238 12.5446C21.5372 12.8705 22.0306 12.7287 22.0306 12.3416C22.0306 12.0628 21.7134 11.8796 21.4648 12.0148ZM17.6874 12.6696C18.6166 12.8246 19.4353 13.2443 20.0949 13.904C20.9332 14.7424 21.3734 15.808 21.3734 16.9991C21.3734 18.1903 20.9332 19.2559 20.0949 20.0943C19.2565 20.9328 18.1911 21.373 17 21.373C15.8089 21.373 14.7435 20.9328 13.9051 20.0943C13.0668 19.2559 12.6266 18.1903 12.6266 16.9991C12.6266 15.808 13.0668 14.7424 13.9051 13.904C14.5541 13.2549 15.374 12.83 16.2813 12.6725C16.6026 12.6168 17.3611 12.6152 17.6874 12.6696ZM16.3951 13.6117C14.7653 13.9061 13.5629 15.3442 13.5629 16.9991C13.5629 19.1196 15.4973 20.7517 17.5801 20.3885C19.87 19.9891 21.1158 17.4857 20.0516 15.4222C19.3658 14.0925 17.8602 13.347 16.3951 13.6117Z" fill="#282A4F"/></svg>
