<svg width="34" height="34" viewBox="0 0 34 34" fill="none" xmlns="http://www.w3.org/2000/svg"><rect width="34" height="34" rx="5" fill="#181A36"/><path fill-rule="evenodd" clip-rule="evenodd" d="M23.9223 11.0706C22.8573 11.4528 9.73143 16.3719 9.5381 16.4613C8.89569 16.7583 8.82058 17.1506 9.35538 17.416C9.40702 17.4416 10.2955 17.7187 11.3297 18.0319L13.2102 18.6012L17.4801 15.9956C19.8286 14.5625 21.7974 13.3738 21.8552 13.3542C22.0002 13.3049 22.125 13.3095 22.1832 13.3663C22.224 13.4061 22.2257 13.4261 22.1933 13.4845C22.1718 13.5232 20.6123 14.9047 18.7277 16.5546C16.8431 18.2045 15.296 19.5673 15.2898 19.5831C15.2836 19.5989 15.2198 20.4226 15.1481 21.4136L15.0178 23.2154L15.1594 23.1967C15.2373 23.1865 15.3607 23.1473 15.4336 23.1096C15.5065 23.0719 15.9972 22.6383 16.524 22.1461C17.0508 21.6539 17.5001 21.2443 17.5224 21.236C17.5446 21.2276 18.3836 21.8073 19.3867 22.5242C20.3897 23.241 21.289 23.863 21.385 23.9063C21.637 24.0199 21.9209 24.0311 22.1052 23.9349C22.2699 23.849 22.4308 23.6355 22.4985 23.4131C22.5247 23.3271 23.0981 20.7424 23.7729 17.6694C24.8962 12.553 24.9996 12.0577 25 11.7921C25.0004 11.5412 24.9897 11.4816 24.9208 11.3495C24.8722 11.2564 24.7893 11.1613 24.7083 11.1058C24.5231 10.9787 24.2166 10.965 23.9223 11.0706Z" fill="#282A4F"/></svg>
