<svg width="34" height="34" viewBox="0 0 34 34" fill="none" xmlns="http://www.w3.org/2000/svg"><rect width="34" height="34" rx="5" fill="#181A36"/><path fill-rule="evenodd" clip-rule="evenodd" d="M15.3805 12.0062C15.0001 12.0329 14.5179 12.1041 14.3249 12.1619C13.9936 12.2613 13.5807 12.6158 13.6571 12.7354C13.6711 12.7573 13.748 12.787 13.8278 12.8014C14.1864 12.8658 14.4889 13.0625 14.6245 13.3195C14.8562 13.7588 14.9604 15.1328 14.8357 16.1055C14.7534 16.7484 14.7185 16.8975 14.5964 17.1306C14.2687 17.756 13.5161 17.2497 12.6867 15.846C12.3915 15.3465 11.5608 13.7433 11.3755 13.3155C11.1514 12.7985 11.0805 12.7033 10.8258 12.5779L10.6108 12.4721L8.98834 12.4834C7.52318 12.4936 7.35358 12.5012 7.23914 12.5616C7.05774 12.6575 6.98025 12.7884 7.00425 12.9586C7.02994 13.141 7.64531 14.4638 8.09879 15.3115C8.98165 16.9618 9.7294 18.1602 10.5288 19.2059C11.7044 20.7438 12.2246 21.2427 13.4257 21.9849C13.9866 22.3315 14.3914 22.5254 14.8918 22.6871C15.5794 22.9093 15.8787 22.9521 16.9053 22.9748C17.9269 22.9974 18.2204 22.9689 18.4369 22.8261C18.6152 22.7085 18.6703 22.5462 18.7036 22.0416C18.7365 21.5436 18.837 21.1166 18.9753 20.8885C19.0972 20.6872 19.3623 20.4548 19.476 20.4494C19.8728 20.4305 20.095 20.5899 20.9239 21.4886C21.7012 22.3311 21.9884 22.5791 22.4178 22.7779C22.6113 22.8675 22.8489 22.9584 22.9456 22.9799C23.1802 23.0319 26.3466 22.9734 26.5511 22.9133C26.7535 22.8537 26.9715 22.6469 26.9765 22.5097C26.9901 22.1344 26.9336 21.9652 26.662 21.5687C26.3052 21.0475 25.9986 20.7147 24.9548 19.7154C23.8465 18.6543 23.7691 18.5555 23.7675 18.2005C23.7662 17.9025 23.9102 17.6735 24.8833 16.4269C26.2559 14.6683 26.8055 13.8188 26.9584 13.22C27.048 12.8688 26.997 12.6993 26.7657 12.5797L26.6011 12.4947L24.6267 12.5074C23.2311 12.5163 22.6242 12.533 22.5561 12.5641C22.4236 12.6246 22.2831 12.8454 22.1071 13.2698C21.6381 14.4002 20.6726 16.0286 20.0364 16.7623C19.7831 17.0543 19.3896 17.3532 19.2584 17.3532C19.0751 17.3532 18.924 17.2387 18.8095 17.0132L18.7037 16.805L18.7144 14.8419C18.7259 12.7309 18.721 12.6686 18.519 12.3898C18.32 12.1153 17.8349 12.0211 16.5339 12.0046C16.0071 11.9979 15.4881 11.9986 15.3805 12.0062Z" fill="#282A4F"/></svg>
