<svg width="9" height="11" viewBox="0 0 9 11" fill="none" xmlns="http://www.w3.org/2000/svg">
<path fill-rule="evenodd" clip-rule="evenodd" d="M4.89296 0.0192096C4.69353 0.0721353 4.5064 0.236375 4.36109 0.486036C4.22351 0.722406 4.15706 0.945615 4.02046 1.63029C3.92777 2.09473 3.87671 2.23018 3.71634 2.43676C3.65206 2.51956 3.39249 2.87554 3.1395 3.22783C2.88652 3.58012 2.60783 3.94984 2.52018 4.04944L2.36086 4.23052L1.45729 4.23688L0.553748 4.24325L0.429575 4.30953C0.270516 4.39443 0.134236 4.54792 0.0588501 4.72706L0 4.86692V7.20029V9.53367L0.051174 9.65664C0.15925 9.91632 0.387223 10.1059 0.641107 10.1473C0.708588 10.1582 1.15594 10.1674 1.63524 10.1677L2.50668 10.1681L2.67189 10.222C2.76274 10.2517 3.08379 10.367 3.38531 10.4783C4.15626 10.7628 4.54641 10.8802 4.97419 10.9564C5.29412 11.0134 6.62714 11.0149 6.85193 10.9585C7.24658 10.8595 7.48421 10.7175 7.74297 10.4262C8.03216 10.1005 8.15904 9.77761 8.20349 9.2541C8.22148 9.04246 8.23024 9.00603 8.28678 8.90833C8.48867 8.55948 8.57017 8.22307 8.56251 7.7702C8.55871 7.54497 8.56139 7.52692 8.61812 7.39385C8.74834 7.08834 8.80389 6.63048 8.74855 6.31856L8.71995 6.15726L8.78376 6.02761C8.94397 5.70207 9.0129 5.36675 8.99803 4.9852C8.9804 4.53332 8.85747 4.23445 8.54687 3.8884C8.34222 3.66038 8.19112 3.55055 7.96252 3.46362C7.80997 3.40562 7.80884 3.40553 7.14621 3.39839C6.78126 3.39446 6.48267 3.38293 6.48267 3.37278C6.48267 3.36263 6.50079 3.30755 6.52294 3.25039C6.65964 2.89763 6.72814 2.57046 6.74379 2.1954C6.77767 1.3845 6.58508 0.752944 6.19365 0.391303C6.07823 0.284656 5.88376 0.171535 5.69979 0.103985C5.45371 0.0136396 5.06702 -0.0270064 4.89296 0.0192096ZM5.51657 0.919313C5.80655 1.03316 5.94046 1.29437 5.98581 1.8346C6.023 2.27758 5.97636 2.50943 5.71136 3.1983C5.52816 3.67455 5.47363 3.86492 5.44453 4.12953L5.4334 4.23088L6.55474 4.23705L7.6761 4.24325L7.80021 4.31C7.94361 4.38714 8.10779 4.56164 8.17241 4.70562C8.23206 4.83855 8.26523 5.03556 8.25096 5.17226C8.23649 5.31095 8.14835 5.58927 8.08064 5.71005C8.02679 5.80612 7.91906 5.90995 7.87319 5.90995C7.82196 5.90995 7.82081 5.93496 7.86836 6.01584C7.97793 6.20232 8.03849 6.52404 8.00867 6.76119C7.98562 6.94444 7.92826 7.09188 7.81362 7.26251L7.72122 7.40002L7.7655 7.53133C7.82992 7.72246 7.82603 8.01429 7.75635 8.21666C7.69534 8.39389 7.61274 8.53269 7.51644 8.61987L7.44404 8.6854L7.45259 8.96975C7.46185 9.27694 7.44056 9.42363 7.35775 9.6235C7.26216 9.85417 7.02095 10.0443 6.7309 10.1176C6.5129 10.1728 5.48129 10.1725 5.13649 10.1173C4.74877 10.0551 4.19953 9.89118 3.51344 9.63281C2.83032 9.37554 2.68919 9.33447 2.42026 9.31449L2.24363 9.30137V7.18629V5.07122H2.37445C2.4464 5.07122 2.53447 5.06017 2.57017 5.04664C2.78066 4.96692 3.14084 4.58962 3.51025 4.06189C3.92151 3.47437 4.06128 3.27985 4.22985 3.06043C4.5625 2.62737 4.61801 2.48487 4.80107 1.59408C4.88795 1.17134 4.93353 1.02424 5.01008 0.919743L5.06584 0.843591L5.23483 0.859333C5.32778 0.867979 5.45455 0.894968 5.51657 0.919313ZM1.32078 8.54701C1.35964 8.58243 1.40799 8.63636 1.42819 8.66686C1.47043 8.73056 1.49046 8.88254 1.47158 8.99596C1.45603 9.08921 1.34267 9.23808 1.25609 9.27889C1.10097 9.35204 0.903507 9.28197 0.802228 9.11784C0.75304 9.03809 0.744696 9.00487 0.744696 8.8885C0.744696 8.77198 0.752926 8.73925 0.80198 8.66082C0.926573 8.46159 1.16879 8.40845 1.32078 8.54701Z" fill="#31325C"/>
</svg>
