<svg width="16" height="16" viewBox="0 0 16 16" fill="none" xmlns="http://www.w3.org/2000/svg">
<path fill-rule="evenodd" clip-rule="evenodd" d="M9.8924 0.044562C9.45152 0.141349 9.08928 0.344674 8.74672 0.687571C8.52753 0.90699 8.44948 1.01225 8.33152 1.24764C8.25166 1.40708 8.17086 1.59875 8.152 1.6736L8.11771 1.80964H4.26477H0.411862L0.272409 1.87996C0.0827496 1.97559 -0.0151927 2.14619 0.00191829 2.35105C0.0159324 2.51918 0.0868788 2.634 0.241879 2.73939L0.345295 2.8097L4.22739 2.80998L8.10948 2.8103L8.1788 3.03656C8.37669 3.68269 8.93197 4.25742 9.58991 4.49709C10.2244 4.72826 10.8698 4.68354 11.4805 4.36611C12.0207 4.08534 12.5011 3.47943 12.6463 2.89564L12.6677 2.8097H14.1612H15.6547L15.7581 2.73939C15.9131 2.634 15.9841 2.51918 15.9981 2.35105C16.0152 2.14619 15.9172 1.97559 15.7276 1.87996C15.5889 1.81002 15.5801 1.80964 14.1258 1.80964H12.6633L12.6286 1.67682C12.567 1.44146 12.3574 1.04966 12.1765 0.83158C11.7361 0.300797 11.06 -0.00787879 10.3552 0.000152958C10.204 0.00190307 9.9957 0.0218731 9.8924 0.044562ZM10.7863 1.05791C11.2679 1.20763 11.6089 1.60469 11.6971 2.11853C11.8434 2.97112 11.0658 3.76139 10.2106 3.62913C9.42368 3.50746 8.90597 2.73207 9.10968 1.98024C9.1749 1.73954 9.35011 1.45552 9.52037 1.31455C9.65798 1.20063 9.92265 1.06319 10.0734 1.0274C10.2652 0.98187 10.5859 0.99559 10.7863 1.05791ZM5.0439 5.74585C4.24153 5.95674 3.62957 6.53606 3.38432 7.31695L3.32817 7.49577L1.81872 7.50446C0.349987 7.5129 0.306944 7.51487 0.222922 7.57756C0.058788 7.70004 0.00758024 7.79989 0.00758024 7.99752C0.00758024 8.19516 0.058788 8.29501 0.222922 8.41749C0.306975 8.48021 0.349956 8.48215 1.82219 8.49062L3.33512 8.49927L3.38676 8.67678C3.5356 9.18825 3.94157 9.70807 4.41511 9.99343C4.51108 10.0513 4.71294 10.1417 4.86369 10.1943C5.09608 10.2754 5.19627 10.292 5.52257 10.3039C5.99839 10.3211 6.23591 10.2714 6.6549 10.067C7.17958 9.81107 7.64574 9.27323 7.8185 8.72447L7.88973 8.49827L11.7902 8.49009C15.6745 8.48196 15.691 8.48165 15.777 8.41749C15.9412 8.29504 15.9924 8.19516 15.9924 7.99752C15.9924 7.79989 15.9412 7.70001 15.777 7.57756C15.691 7.5134 15.6745 7.51309 11.7898 7.50496L7.88901 7.49677L7.81725 7.26579C7.64746 6.71935 7.17417 6.17647 6.64323 5.91921C6.4862 5.84311 6.26622 5.75948 6.15439 5.73332C5.86923 5.66669 5.32171 5.67285 5.0439 5.74585ZM6.0395 6.74557C6.8078 7.00968 7.15665 7.88683 6.78343 8.61616C6.63782 8.90071 6.37149 9.12622 6.03821 9.24713C5.87477 9.30645 5.79763 9.31564 5.55335 9.30492C5.30854 9.29417 5.22956 9.2766 5.05097 9.19307C4.38267 8.88042 4.09498 8.07675 4.41639 7.42039C4.56726 7.11231 4.79787 6.90314 5.14291 6.76142C5.38246 6.663 5.77886 6.656 6.0395 6.74557ZM9.98637 11.3856C9.13414 11.5513 8.41927 12.1734 8.1788 12.9585L8.10948 13.1848L4.22739 13.1851L0.345295 13.1853L0.241879 13.2557C0.0868788 13.361 0.0159324 13.4759 0.00191829 13.644C-0.0151927 13.8489 0.0827496 14.0195 0.272409 14.1151L0.411862 14.1854H4.26477H8.11771L8.152 14.3214C8.17086 14.3963 8.25244 14.5897 8.33327 14.7512C8.57527 15.2346 9.01568 15.629 9.56148 15.8511C10.4308 16.2048 11.56 15.9092 12.1723 15.1675C12.3719 14.9258 12.5395 14.6209 12.6134 14.3651L12.6654 14.1854H14.1268C15.5801 14.1854 15.5889 14.185 15.7276 14.1151C15.9172 14.0195 16.0152 13.8489 15.9981 13.644C15.9841 13.4759 15.9131 13.361 15.7581 13.2557L15.6547 13.1853H14.1635H12.6724L12.6164 13.0056C12.5003 12.633 12.321 12.3432 12.0209 12.0434C11.7027 11.7255 11.4064 11.549 11.0034 11.4375C10.6984 11.353 10.2671 11.331 9.98637 11.3856ZM10.6904 12.3906C11.3573 12.5421 11.8111 13.2121 11.6971 13.8765C11.6316 14.2579 11.4321 14.5715 11.1241 14.7769C10.5157 15.1828 9.6775 15.0109 9.28163 14.399C8.8562 13.7414 9.10023 12.8388 9.7959 12.4969C10.1121 12.3415 10.3501 12.3133 10.6904 12.3906Z" fill="#8287F3"/>
</svg>
