<svg width="255" height="48" viewBox="0 0 255 48" fill="none" xmlns="http://www.w3.org/2000/svg"><g clip-path="url(#clip0_50_72)"><path d="M23.2126 16.5717C18.688 16.5717 15.0201 12.862 15.0201 8.28582C15.0201 3.7096 18.688 0 23.2126 0C27.7374 0 31.4054 3.7096 31.4054 8.28582C31.4054 12.862 27.7374 16.5717 23.2126 16.5717ZM40.6582 35.358C38.8562 32.6567 36.4533 30.3948 33.6421 28.767C27.2274 25.0528 19.1912 25.0525 12.7764 28.767C9.96705 30.3937 7.56546 32.6536 5.76385 35.3529C6.93797 37.1136 8.36607 38.6879 9.9953 40.021C17.6555 46.2903 28.7688 46.2905 36.4294 40.0218C38.0575 38.6898 39.4846 37.1174 40.6582 35.358ZM3.44218 11.1796C5.55524 7.71224 8.53387 4.8453 12.0651 2.88598C13.395 7.42727 13.3284 12.3619 11.873 16.8642C13.5498 16.5919 15.2563 16.5079 16.9514 16.6126C14.1664 22.5304 9.06697 26.9899 2.88759 28.9594C3.28548 30.4734 3.84489 31.9212 4.54554 33.2827C6.45871 30.6687 8.89337 28.4718 11.6926 26.8509C18.7786 22.7477 27.6398 22.748 34.7259 26.8509C37.5273 28.473 39.9633 30.6719 41.877 33.2883C42.5792 31.9251 43.1394 30.4755 43.5381 28.9594C37.3587 26.9901 32.2591 22.5301 29.4741 16.6126C31.1692 16.5079 32.8756 16.5919 34.5525 16.8642C33.0971 12.3619 33.0305 7.42727 34.3603 2.88598C37.8915 4.8453 40.8702 7.71224 42.9832 11.1796C48.0451 19.4859 47.4545 30.0464 41.6776 37.7067L43.372 39.1445L41.9724 40.8362L40.2756 39.3963C39.8527 39.8596 39.4119 40.3059 38.9539 40.7334L40.3777 42.4496L38.7049 43.8652L37.2839 42.1521C36.7882 42.5348 36.2769 42.8976 35.7507 43.2397L36.859 45.1809L34.9729 46.2772L33.8679 44.3414C33.3144 44.6313 32.748 44.8992 32.1698 45.1438L32.9271 47.249L30.879 48L30.1225 45.8979C25.6521 47.3063 20.7733 47.3063 16.3028 45.8979L15.5464 48L13.4983 47.2491L14.2557 45.1438C13.6775 44.8992 13.1111 44.6313 12.5574 44.3414L11.4524 46.2772L9.56651 45.1809L10.6747 43.2397C10.1486 42.8976 9.63724 42.5348 9.14158 42.1521L7.72047 43.8652L6.04754 42.4496L7.47155 40.7334C7.01354 40.3056 6.57266 39.8595 6.1499 39.3963L4.45307 40.8362L3.05346 39.1445L4.74787 37.7066C-1.01478 30.0651 -1.63021 19.503 3.44218 11.1796ZM29.7636 33.5964C28.8586 33.5964 28.1249 34.3383 28.1249 35.2534C28.1249 36.1686 28.8586 36.9108 29.7636 36.9108C30.6685 36.9108 31.402 36.1686 31.402 35.2534C31.402 34.3383 30.6685 33.5964 29.7636 33.5964ZM16.6549 33.5964C17.5597 33.5964 18.2936 34.3383 18.2936 35.2534C18.2936 36.1686 17.5597 36.9108 16.6549 36.9108C15.75 36.9108 15.0163 36.1686 15.0163 35.2534C15.0163 34.3383 15.75 33.5964 16.6549 33.5964ZM33.3383 18.9181C35.9595 22.6208 39.6961 25.392 43.9876 26.7901C44.7591 21.7935 43.7605 16.6504 41.1315 12.3363C39.7398 10.0527 37.9323 8.05506 35.8161 6.4508C35.1298 11.1813 36.0296 16.0352 38.3979 20.1831C36.771 19.5504 35.0693 19.1234 33.3383 18.9181ZM25.1832 7.98963C25.6495 7.71613 25.8818 7.18602 25.8238 6.69936C25.718 5.81469 24.7981 5.561 24.0499 5.51386V4.28977H23.3036V5.49945C23.1371 5.49945 22.9424 5.49945 22.7352 5.49945V4.28977H21.989V5.49945C21.2272 5.49945 20.5208 5.49945 20.5208 5.49945V6.28327C20.5208 6.28327 20.8347 6.28327 20.9523 6.28327C21.311 6.28327 21.4727 6.37363 21.4727 6.74625C21.4727 6.94183 21.4727 9.79534 21.4727 9.86934C21.4727 10.1169 21.3375 10.169 21.1206 10.169C20.9706 10.169 20.6744 10.169 20.6744 10.169L20.5208 11.0756C20.5208 11.0756 21.2504 11.0756 21.989 11.0756V12.2818H22.7352V11.0756C22.9644 11.0756 23.1641 11.0756 23.3036 11.0756V12.2818H24.0499V11.0556C25.2298 10.986 26.2028 10.7332 26.2328 9.29795C26.2479 8.58151 25.8643 8.13516 25.1832 7.98963ZM22.7352 6.35312C23.2713 6.30527 24.4275 6.2779 24.4474 7.04439C24.4683 7.87339 23.2911 7.82651 22.7352 7.80966V6.35312ZM22.7352 10.1797V8.56077C23.3383 8.52951 24.7822 8.47309 24.7822 9.34727C24.7822 10.2483 23.3635 10.1931 22.7352 10.1797ZM13.0872 18.9181C11.3558 19.1234 9.65439 19.5504 8.02758 20.1831C10.4082 15.992 11.3034 11.2343 10.6093 6.4508C8.49306 8.05506 6.68566 10.0527 5.294 12.3363C2.66498 16.6504 1.66639 21.7935 2.43779 26.7901C6.72936 25.392 10.4659 22.6208 13.0872 18.9181ZM23.2126 14.362C26.5312 14.362 29.2208 11.6418 29.2208 8.28582C29.2208 4.92978 26.5312 2.2096 23.2126 2.2096C19.8942 2.2096 17.2046 4.92978 17.2046 8.28582C17.2046 11.6418 19.8942 14.362 23.2126 14.362Z" fill="white"/><path d="M65.2672 36.0965C71.9111 36.0965 75.0599 32.7368 75.0599 28.8111C75.0599 19.8287 60.6994 23.2233 60.6994 18.0087C60.6994 16.1481 62.2219 14.6781 65.9591 14.6781C68.0701 14.6781 70.4576 15.3081 72.6375 16.6031L74.0565 13.0685C71.9457 11.6686 68.9004 10.8984 65.9937 10.8984C59.3498 10.8984 56.2355 14.2584 56.2355 18.2187C56.2355 27.3062 70.6307 23.8473 70.6307 29.132C70.6307 30.9518 69.039 32.3168 65.2672 32.3168C62.2912 32.3168 59.2114 31.1967 57.2737 29.622L55.7163 33.1566C57.7234 34.9067 61.4952 36.0965 65.2672 36.0965ZM110.633 11.2486L104.439 29.972L98.3138 11.2486H94.1613L87.8979 29.867L81.877 11.2486H77.2054L85.2334 35.7464H90.0434L96.1337 17.6181L102.12 35.7464H106.896L114.924 11.2486H110.633ZM135.963 35.7464H140.669L129.734 11.2486H125.305L114.404 35.7464H119.042L121.429 30.077H133.54L135.963 35.7464ZM122.952 26.5073L127.485 15.7982L132.053 26.5073H122.952ZM153.714 11.2486H143.749V35.7464H148.247V28.677H153.714C160.082 28.677 164.026 25.3523 164.026 19.9626C164.026 14.5382 160.082 11.2486 153.714 11.2486ZM153.507 24.8273H148.247V15.0981H153.507C157.452 15.0981 159.493 16.8831 159.493 19.9626C159.493 23.0426 157.452 24.8273 153.507 24.8273ZM176.38 36.0965C183.025 36.0965 186.173 32.7368 186.173 28.8111C186.173 19.8287 171.812 23.2233 171.812 18.0087C171.812 16.1481 173.335 14.6781 177.072 14.6781C179.184 14.6781 181.57 15.3081 183.75 16.6031L185.169 13.0685C183.058 11.6686 180.014 10.8984 177.107 10.8984C170.463 10.8984 167.349 14.2584 167.349 18.2187C167.349 27.3062 181.744 23.8473 181.744 29.132C181.744 30.9518 180.153 32.3168 176.38 32.3168C173.404 32.3168 170.324 31.1967 168.386 29.622L166.83 33.1566C168.836 34.9067 172.609 36.0965 176.38 36.0965ZM195.205 35.7464H199.703V15.0981H207.732V11.2486H187.176V15.0981H195.205V35.7464ZM215.621 31.9317V25.1772H227.317V21.4326H215.621V15.0632H228.805V11.2486H211.123V35.7464H229.289V31.9317H215.621ZM255 35.7464L249.429 27.6971C252.717 26.4023 254.585 23.6726 254.585 19.9626C254.585 14.5382 250.64 11.2486 244.273 11.2486H234.307V35.7464H238.805V28.607H244.273C244.584 28.607 244.896 28.607 245.207 28.572L250.155 35.7464H255ZM250.052 19.9626C250.052 23.0426 248.01 24.8624 244.066 24.8624H238.805V15.0981H244.066C248.01 15.0981 250.052 16.8831 250.052 19.9626Z" fill="white"/></g><defs><clipPath id="clip0_50_72"><rect width="255" height="48" fill="white"/></clipPath></defs></svg>
