<svg width="34" height="34" viewBox="0 0 34 34" fill="none" xmlns="http://www.w3.org/2000/svg"><rect width="34" height="34" rx="5" fill="#181A36"/><path fill-rule="evenodd" clip-rule="evenodd" d="M18.8359 9.04115C17.098 9.30652 16.0091 10.3611 15.6837 12.0943C15.6396 12.3288 15.6237 12.7188 15.6109 13.8811L15.5944 15.368H14.2972H13V16.8797V18.3914H14.3008H15.6016V22.1957V26H17.2188H18.8359V22.1957V18.3914H20.084C20.7704 18.3914 21.332 18.3828 21.332 18.3723C21.332 18.3617 21.419 17.6976 21.5254 16.8963C21.6317 16.0951 21.7188 15.4234 21.7188 15.4037C21.7188 15.3788 21.2828 15.368 20.2755 15.368H18.8322L18.8437 14.0306C18.8538 12.8467 18.8622 12.6762 18.9173 12.5438C19.0548 12.2131 19.2626 12.0275 19.6356 11.9022C19.8185 11.8408 19.9415 11.833 20.9189 11.8207L22 11.8071V10.4633C22 9.41796 21.9902 9.11641 21.9561 9.10548C21.8395 9.06813 20.9049 9.01786 20.084 9.00474C19.3711 8.99334 19.0964 9.00138 18.8359 9.04115Z" fill="#282A4F"/></svg>
