<svg width="10" height="10" viewBox="0 0 10 10" fill="none" xmlns="http://www.w3.org/2000/svg"><path fill-rule="evenodd" clip-rule="evenodd" d="M1.04356 0.0344128C0.54629 0.144714 0.100146 0.610679 0.0185005 1.10506C-0.0149541 1.30772 0.000720562 8.18859 0.0356133 8.61357C0.103252 9.43733 0.176226 9.70043 0.386375 9.87826C0.485259 9.96193 0.655116 10.0157 0.758231 9.9959C0.982366 9.95296 1.29304 9.63113 2.17483 8.52841C2.39019 8.2591 2.61438 7.98804 2.67304 7.92607L2.77968 7.81341L5.84373 7.82767C9.2707 7.84361 9.01856 7.85343 9.32467 7.69214C9.52931 7.58431 9.75924 7.34497 9.86094 7.13395C10.0113 6.82187 10.0036 7.00662 9.99732 3.86072L9.99168 1.03449L9.93792 0.893553C9.75993 0.426843 9.41484 0.120082 8.97005 0.0331567C8.73979 -0.0118494 1.24675 -0.0106572 1.04356 0.0344128ZM8.9826 0.739055C9.10468 0.796728 9.22395 0.918547 9.28042 1.04324L9.32467 1.14094L9.33019 3.88727C9.33526 6.40512 9.33282 6.64301 9.30084 6.74682C9.25447 6.89738 9.11927 7.04975 8.97614 7.11272L8.8661 7.16116L5.70814 7.15288L2.55018 7.14459L2.433 7.22975C2.29753 7.32819 2.19855 7.4373 1.72802 8.00684C0.872935 9.04183 0.782889 9.14432 0.767027 9.10053C0.74289 9.03385 0.707643 8.64529 0.685235 8.19843C0.67325 7.9593 0.664329 6.39652 0.664225 4.51269C0.663995 0.92074 0.655324 1.16406 0.79056 0.971686C0.868975 0.860171 1.01196 0.751403 1.12994 0.713571C1.19985 0.691132 1.95015 0.686597 5.05166 0.689833L8.88695 0.693857L8.9826 0.739055ZM1.90423 2.06103C1.83221 2.07889 1.72383 2.17621 1.69358 2.25012C1.62711 2.41261 1.67866 2.57468 1.82994 2.67881L1.90056 2.72741L5.01183 2.7219C8.11749 2.71636 8.1232 2.71628 8.18065 2.67247C8.27507 2.60046 8.31905 2.52344 8.32793 2.41456C8.33933 2.27501 8.27407 2.15879 8.1477 2.09365L8.05477 2.04574L5.00035 2.04821C3.32041 2.04958 1.92716 2.05535 1.90423 2.06103ZM1.90423 3.42356C1.83221 3.44142 1.72383 3.53874 1.69358 3.61266C1.62715 3.77501 1.67866 3.93721 1.82965 4.04113L1.89998 4.08954H4.99955H8.09913L8.16804 4.04164C8.27132 3.96985 8.31859 3.89163 8.32793 3.7771C8.33933 3.63754 8.27407 3.52132 8.1477 3.45618L8.05477 3.40828L5.00035 3.41075C3.32041 3.41211 1.92716 3.41788 1.90423 3.42356ZM1.85254 4.81871C1.72977 4.88279 1.68047 4.95716 1.66967 5.0946C1.65942 5.22494 1.70892 5.32057 1.82965 5.40366L1.89998 5.45207H3.99904H6.09811L6.16702 5.40417C6.26678 5.33483 6.31599 5.25687 6.32679 5.15112C6.34065 5.01504 6.26822 4.88126 6.14676 4.81871L6.05376 4.77081H3.99904H1.94433L1.85254 4.81871Z" fill="#31325C"/></svg>
