<svg width="18" height="12" viewBox="0 0 18 12" fill="none" xmlns="http://www.w3.org/2000/svg"><path fill-rule="evenodd" clip-rule="evenodd" d="M1.27039 0.0328148C0.666936 0.1452 0.153965 0.641716 0.0370149 1.22665C-0.0123383 1.47335 -0.0123383 10.5221 0.0370149 10.7688C0.156742 11.3676 0.666585 11.8511 1.29791 11.9647C1.55958 12.0118 16.4404 12.0118 16.7021 11.9647C17.3334 11.8511 17.8433 11.3676 17.963 10.7688C18.0123 10.5221 18.0123 1.47335 17.963 1.22665C17.8433 0.62788 17.3334 0.144333 16.7021 0.0307812C16.4668 -0.0115592 1.49796 -0.00959228 1.27039 0.0328148ZM13.0958 3.91809C10.9878 5.90679 9.94126 6.87132 9.80909 6.94733C9.31647 7.23054 8.68353 7.23054 8.19091 6.94733C8.05874 6.87132 7.0122 5.90679 4.90421 3.91809L1.81145 1.00038H9H16.1886L13.0958 3.91809ZM4.20163 4.66205L5.60756 5.99777L3.85011 7.66685C2.88351 8.58483 1.85932 9.54673 1.57417 9.80437L1.05568 10.2728V5.9976V1.72243L1.92569 2.52436C2.40421 2.96543 3.42836 3.92739 4.20163 4.66205ZM16.9358 8.13976L16.9267 10.2818L14.6594 8.13906L12.3922 5.9963L14.6594 3.85738L16.9267 1.71846L16.9358 3.85812C16.9408 5.03491 16.9408 6.96163 16.9358 8.13976ZM6.73337 7.06652C7.36952 7.67452 7.73808 7.91656 8.26181 8.07025C8.48249 8.13503 8.60278 8.14763 9 8.14763C9.54042 8.14763 9.82231 8.08522 10.2303 7.87535C10.5325 7.71989 10.6921 7.59607 11.2043 7.11972L11.6335 6.72062L12.4698 7.49055C12.9298 7.91399 13.9546 8.87655 14.7472 9.62951L16.1882 10.9986L8.99982 10.9971L1.81145 10.9957L4.07203 8.86345C5.31535 7.69072 6.34385 6.73119 6.35756 6.73119C6.37127 6.73119 6.54039 6.88208 6.73337 7.06652Z" fill="#07DBB4"/></svg>
