<svg width="15" height="10" viewBox="0 0 15 10" fill="none" xmlns="http://www.w3.org/2000/svg"><path fill-rule="evenodd" clip-rule="evenodd" d="M6.71128 0.0521882C4.66897 0.328104 2.46615 1.71081 0.569817 3.90711C0.0874372 4.46579 -0.000780954 4.63474 5.1817e-06 4.99854C0.000791318 5.36901 0.0912995 5.54362 0.570056 6.0981C1.89217 7.62931 3.42082 8.8123 4.88331 9.43595C6.79465 10.251 8.64432 10.1834 10.5565 9.2287C11.8823 8.56677 13.2353 7.47399 14.4082 6.1177C14.8484 5.60874 14.9384 5.46349 14.9868 5.18403C15.0302 4.93339 14.964 4.61364 14.8241 4.39804C14.6015 4.0551 13.6711 3.05983 13.0687 2.5202C12.2498 1.78663 11.4291 1.21477 10.5923 0.794765C9.26598 0.128945 7.97354 -0.118325 6.71128 0.0521882ZM8.04518 1.14559C8.7687 1.23702 9.32894 1.4132 10.078 1.78489C11.3212 2.4018 12.5496 3.41379 13.7985 4.85003L13.9228 4.99311L13.7792 5.1629C12.2743 6.94107 10.5749 8.17947 8.96715 8.66953C8.21991 8.8973 7.28714 8.94746 6.55552 8.7992C4.90098 8.46387 3.12127 7.30247 1.51007 5.50664C1.12066 5.07262 1.08142 5.01734 1.12141 4.95926C1.25471 4.76576 1.96394 4.00136 2.32208 3.6653C3.79133 2.28652 5.20047 1.46729 6.53843 1.21404C7.12236 1.10353 7.55624 1.08382 8.04518 1.14559ZM7.06549 2.53511C6.57576 2.62501 6.15569 2.85605 5.77123 3.24693C5.45893 3.56445 5.27928 3.85563 5.1493 4.25506C5.06939 4.50062 5.05879 4.58809 5.05879 5.00247C5.05879 5.41684 5.06939 5.50431 5.1493 5.74987C5.27925 6.14923 5.4589 6.44044 5.77123 6.75811C6.08357 7.07578 6.36989 7.25849 6.76255 7.39066C7.004 7.47194 7.08999 7.48271 7.49742 7.48271C7.90484 7.48271 7.99084 7.47194 8.23228 7.39066C8.62494 7.25849 8.91127 7.07578 9.2236 6.75811C9.53594 6.44044 9.71558 6.14923 9.84554 5.74987C9.92545 5.50431 9.93604 5.41684 9.93604 5.00247C9.93604 4.58809 9.92545 4.50062 9.84554 4.25506C9.71558 3.8557 9.53594 3.56449 9.2236 3.24682C8.74669 2.76177 8.25402 2.54002 7.59996 2.51603C7.40257 2.5088 7.16205 2.51739 7.06549 2.53511ZM8.05896 3.74473C8.36736 3.89154 8.56691 4.09115 8.71986 4.40593C8.84048 4.65414 8.84752 4.68699 8.84752 5.00247C8.84752 5.31794 8.84048 5.35079 8.71986 5.599C8.56612 5.91542 8.36822 6.11249 8.05045 6.26559C7.84397 6.36508 7.79106 6.37561 7.49742 6.37561C7.20378 6.37561 7.15087 6.36508 6.94439 6.26559C6.62662 6.11249 6.42872 5.91542 6.27498 5.599C6.15449 5.35107 6.14731 5.31766 6.14731 5.00427C6.14731 4.70357 6.15753 4.65028 6.25549 4.44C6.39283 4.14514 6.58837 3.92929 6.84342 3.79104C7.11266 3.6451 7.25997 3.61208 7.57429 3.6273C7.77944 3.63725 7.88871 3.6637 8.05896 3.74473Z" fill="#31325C"/></svg>
